<mxfile host="app.diagrams.net" agent="Mozilla/5.0 (X11; Linux x86_64; rv:121.0) Gecko/20100101 Firefox/121.0" version="24.7.17">
  <diagram name="Page-1" id="b520641d-4fe3-3701-9064-5fc419738815">
    <mxGraphModel dx="1434" dy="704" grid="1" gridSize="10" guides="1" tooltips="1" connect="1" arrows="1" fold="1" page="1" pageScale="1" pageWidth="1100" pageHeight="850" background="none" math="0" shadow="0">
      <root>
        <mxCell id="0" />
        <mxCell id="1" parent="0" />
        <mxCell id="62sTpGnNLeASL4iVha29-17" style="edgeStyle=orthogonalEdgeStyle;rounded=0;orthogonalLoop=1;jettySize=auto;html=1;entryX=0;entryY=0.5;entryDx=0;entryDy=0;" parent="1" source="62sTpGnNLeASL4iVha29-5" target="vrlAtNUlEUxdFxPiRWN3-1" edge="1">
          <mxGeometry relative="1" as="geometry">
            <mxPoint x="570" y="130.5" as="targetPoint" />
          </mxGeometry>
        </mxCell>
        <mxCell id="62sTpGnNLeASL4iVha29-5" value="RAW" style="shape=mxgraph.signs.nature.snowflake;html=1;pointerEvents=1;fillColor=#000000;strokeColor=none;verticalLabelPosition=bottom;verticalAlign=top;align=center;" parent="1" vertex="1">
          <mxGeometry x="310" y="55" width="40" height="50" as="geometry" />
        </mxCell>
        <mxCell id="62sTpGnNLeASL4iVha29-6" value="" style="sketch=0;points=[[0,0,0],[0.25,0,0],[0.5,0,0],[0.75,0,0],[1,0,0],[0,1,0],[0.25,1,0],[0.5,1,0],[0.75,1,0],[1,1,0],[0,0.25,0],[0,0.5,0],[0,0.75,0],[1,0.25,0],[1,0.5,0],[1,0.75,0]];outlineConnect=0;fontColor=#232F3E;fillColor=#8C4FFF;strokeColor=#ffffff;dashed=0;verticalLabelPosition=bottom;verticalAlign=top;align=center;html=1;fontSize=12;fontStyle=0;aspect=fixed;shape=mxgraph.aws4.resourceIcon;resIcon=mxgraph.aws4.managed_streaming_for_kafka;" parent="1" vertex="1">
          <mxGeometry x="200" y="55" width="35" height="35" as="geometry" />
        </mxCell>
        <mxCell id="62sTpGnNLeASL4iVha29-11" value="Reporting" style="shape=mxgraph.signs.nature.snowflake;html=1;pointerEvents=1;fillColor=#000000;strokeColor=none;verticalLabelPosition=bottom;verticalAlign=top;align=center;" parent="1" vertex="1">
          <mxGeometry x="890" y="70" width="87" height="98" as="geometry" />
        </mxCell>
        <mxCell id="62sTpGnNLeASL4iVha29-18" style="edgeStyle=orthogonalEdgeStyle;rounded=0;orthogonalLoop=1;jettySize=auto;html=1;entryX=0.08;entryY=0.582;entryDx=0;entryDy=0;entryPerimeter=0;" parent="1" source="vrlAtNUlEUxdFxPiRWN3-1" target="62sTpGnNLeASL4iVha29-11" edge="1">
          <mxGeometry relative="1" as="geometry">
            <mxPoint x="622" y="130.5" as="sourcePoint" />
          </mxGeometry>
        </mxCell>
        <mxCell id="vrlAtNUlEUxdFxPiRWN3-1" value="" style="shape=image;imageAspect=0;aspect=fixed;verticalLabelPosition=bottom;verticalAlign=top;image=data:image/png,iVBORw0KGgoAAAANSUhEUgAAAvoAAAFOCAIAAAB4zi58AAAAA3NCSVQICAjb4U/gAAAgAElEQVR4Xu2dXYxe1Xnvdypugm0uoOLDJhfB4PENNhW2jl0iHcbhlCgONmqgamxKVCrskB5UIBFNIkxCjAiQBBOlDbFR01OCnaomFYNDBITMcHRC7SMPPdjceAx2LmIPmJZcMDa55PxfbzId/H7tj/W9fltWRPa799pr/Z7nnf1/n+dZa33k/fffLzggAAEIQAACEIBAugT+IN2hMTIIQAACEIAABCDQIYDcwQ8gAAEIQAACEEicAHIncQMzPAhAAAIQgAAEkDv4AAQgAAEIQAACiRNA7iRuYIYHAQhAAAIQgAByBx+AAAQgAAEIQCBxAsidxA3M8CAAAQhAAAIQQO7gAxCAAAQgAAEIJE4AuZO4gRkeBCAAAQhAAALIHXwAAhCAAAQgAIHECSB3Ejcww4MABCAAAQhAALmDD0AAAhCAAAQgkDgB5E7iBmZ4EIAABCAAAQggd/ABCEAAAhCAAAQSJ4DcSdzADA8CEIAABCAAAeQOPgABCEAAAhCAQOIEkDuJG5jhQQACEIAABCCA3MEHIAABCEAAAhBInAByJ3EDMzwIQAACEIAABJA7+AAEIAABCEAAAokTQO4kbmCGBwEIQAACEIAAcgcfgAAEIAABCEAgcQLIncQNzPAgAAEIQAACEEDu4AMQgAAEIAABCCROALmTuIEZHgQgAAEIQAACyB18AAIQgAAEIACBxAkgdxI3MMODAAQgAAEIQAC5gw9AAAIQgAAEIJA4AeRO4gZmeBCAAAQgAAEIIHfwAQhAAAIQgAAEEidwVrjje+9UcfxocexI8ZtfF6+/VvzuZKer515QnHd+cfElxZJlxWWXh9t5ehYmATmVfOnwweK3J4pjv/6QUy25vLh4MU4Vpt3oFQQgAIGWBD7y/vvvt2zC8O16If3fXxQH9hWHXxvS8tnzimWri9XX8IoaAoqPazmVZPTy1R3XkoNxQAACEIBAEgRCkjsH9xXjTw9XOd3cz7ugWLuhWHVN9yecgUDx7M5iYqyQ4ql7yKMQ03WhcT0EIACBIAkEIHf0Hpp4uuELaS5TRE+QHuazU/teLJ7dVbxzolUfFOz5zEYiiK0YcjMEIAAB3wR8yx0JHb2QGvzy7gdOZT03buLl1A9PLueVDH1qR1uhMxeWRM/Nd3XqxjggAAEIQCBCAv7kzrGjnRfS0AKdZkyVhli7kZdTM3hx36VKZGWvLPnVmvXFpzdS0xO3h9B7CEAgSwKe5I6COrsftw4c0WMdcUgPUNLqx9tsCZ3ZgSpnuvmeztxADghAAAIQiIeAc7nj5p009+U0uq5Yc308FqGn9QkoGfrzncX4WP07m96h0niFDzkgAAEIQCASAm7ljhJY2+83WVFRkTJVzBVBRXeZqTr3BgMnsdUAGrdAAAIQ8ETAodxRUcX2rSarkusiW7aquHEzBT11sYV7vTzqiW0e1PMsEaW07niQUp5wPYSeQQACEPg9AVdyR1OC9WYK4aCgJwQrtOyD1XrkWn1T4FCKhxlbtaBxMQQgAAHnBJzInXC0TslXrygKepy7mpkHKnulCX3yqHAOFE84tqAnEIAABPoQsC93VK/zwO19nu71NAU9XvHXfrjHMp2hfSWrNRQRF0AAAhDwSsCy3NE8rG/d7rNeZyhcCnqGIgrhAu9lOkMhaB3COx8cehUXQAACEICAFwI25Y60zqNf9VlJWp0oBT3VWTm+MpwynaED11ytGzYNvYoLIAABCEDAPQGbcufRr1hf880gMHJbBmEaacr9ajrtu33DrSzy1J4iLUAAAhAwTsCa3NFC/toMK7pDoufmO9lyy7/dGm9j7rfrH51XfO3vmKjl1wg8HQIQgEA3ATtyR2msLbd0PyyaM+S2PJoq/DKdwXBUtvy17w++hE8hAAEIQMAxATtyR1pHiif2QxsFjF7PInLuzOh4gxF7A2OLCXtsaRkCEIBAIwIW5E5oq+w04vLBTRT0tKFX/d5yknmM2c+eYySl1RMLJyEAAQj4I2BB7qQR2plrEqUnNm+hIMOWl0483SnzkuJJ6VA+VEVgHBCAAAQgEAYB03InpdDOGRaioMe4y0Y0ybzB2LUMjxbj4YAABCAAgQAInGW4D8nkI7q5SMnp9czuE91kGpwJcC+IBqMYfMveF5E7gwnxKQQgAAFnBIxGdxIO7cw1iAp6bry1WLbamZFSe1Ckk8wbmOE7/0KpewNs3AIBCEDAOIE/MNmifs7mcGgC0Q/v72zw/s7bOQzX5BgVHlNpV3qVOv0YqSyJAwIQgAAEAiBgLroT+1o7zYzBZPWK3JKZZF5xvOVlmqL13X+pdQcXQwACEICADQLmanf0wz3DQ4GKfb8sJHpUyMzRk0DIO5n37LDBk7871an3omDZIFKaggAEINCIgLlkViaZrG7KilsosfXA7eS2utkUKuf61u0ZZa+6Eby6t/scZyAAAQhAwDEBc8msL6513PUQH8dk9VmrpD3JvLrzqbB964+qX86VEIAABCBgg4ChZFaemaxug5ST1TPPbcW4k3m3KU2dUfBPQM6eZ6o92oEABCAAgQYEDCWzjh1p8Ow0bylzW5p/lKcE1Fyke/+yGB9L07jNRvXGwWb3cRcEIAABCJgiYCi6M5VlnfIAI0j0bPtKp3557cZcdp8ge9XPH/TtYJWmfnA4DwEIQMAJAUNy57f/4aS3sT1EuS39S35/bLJXgx1T87M4IAABCEDAKwFTcuctr6MI++FpT1ZPcoNPsw517KjZ9mgNAhCAAATqEjAkd+o+Nrfry4Kew68lldtS9mr3joJ3+VBnJrozFBEXQAACELBMwJDc+ej8zvQTjsEEZnNbq/5H3AU9OWzwOdiUtT499/xal3MxBCAAAQgYJ2BI7iz6eKEABkcVArHntsheVbHy3Gu0lQQHBCAAAQh4JWBI7vzhBV5HEdvDy9yWZmtv3hJTmIfsVTNH+9glze7jLghAAAIQMEXA0Lo7y1eb6lBG7ajqZctfFs/ujGDIZfZKU+up1GlgrSXLGtzELRCAAAQgYJCAoejOxZd01o2lfKeBZcLPbZG9amDW2Vu0iQRbhLYByL0QgAAETBAwFN1RdcIiIvZNDRLsJqPq2KNfKXY/jpBtatoCrdMcHXdCAAIQMEfAkNxRhz6z0VyvsmxpNrcVQpBsdisMTZ7naENAy2pzQKA+gZmZU0/u+mn9+0K5Y3Ly1fGJl0PpDf2AQFEYSmYJpSL2itszP6ulV4WQ23rq8WL86Zbj4PYOAe0ich6z0PGFGgSkcsb2PCehMPnKAd1204bP1rg5gEulcva/cmDsmeen3zyxcsXyNaNXBdApugCBDgFzckeNabeEJ7bBtS2BMrLy6t7ixs1+Xpaj64oDe1Gube2o+1dfY6ARmsiAwBkqJ7oRz1U50XWeDmdCwKjc0W/ZvS9muhO4cX85uK/QvzXri9HrXYseRem+9v3OFqfMw2pjVsU7KVJuAzCDe1E5GRiZIYZCwKjc0aBUwaPXJIcpAlqb58C+TthMUtLlodpzKR7F6rQSNEczAlSzNeOWwV3T02+N7Xl+/+SBMmMV3YiJ5URnMjosAqblTvmLVuvRcZgi4HFNwpvv7NRjRbEykCnaptpZvorQjimWybSTgMoZf+nfxid+pbqcZIzCQPIhYFruiBwBHhvuU87bUoxHM31cVr8qsKQDxVPXpjdsrnsH16dKIA2Vo3DUzMzJVG3EuHIgYEHuEOCx5zhKLSly5ji3pccpwkRWq7pZmZBVnVW6V8ae8enMJH/p31A56XpodiOzIHfEkACPPUcqc1uar37Hg+7CPMpq6bnkKCualbV2KoJK8TJUTopWZUwpELAjdxTg0Q9c4gH2PETiQ/ttucxtfWFL8cDtzE4fblLH2cbhHeIKFwRQOS4o8wwItCBgR+6oQ8qAHNzL5gMtTFPhVpe5Lc3VuuNbxbdux6aDDKPKbsdz6Ab1hs+sE4g94xN7/60bmAckRMCa3NHf/dH1hXIuHFYJzOa2Nt9TaKNWq4dsunkLCw0MYiyV77KQfFBX+MwigdhVQuz9t2hamk6XgDW5I2Rrri8mxggGuHAeiR5lmhzktpSmlFnZYqKnUQnt9MSS0Mmpw0e0PUK81buonISckaHUJmBui9DuRyv98Wn2R+zmYu2MclvawNy2FrnhVlaU6W3CctJ+7884mwKBJ3f+VNt2xjsf+wfbn4i6/yn4EGPwR8Cm3NGotAeCfvJyOCOgMI82+NxyS6dwyt6hiVpnz7PXfJQtK7RG1U6UlqPTEIBAFgQsyx0x1KuRwzEBiZ4f3t/ZAuKdt608uSzMstJ0tI0y+Txa09FxCEBgloD2cYs3fjnYjvblDhslDraAvU+V29JkdUsLInemWxO3+73xWFfQnhvTMgQgYJ+AVI4SnbfcetdV/33dzMk0l8+2Wao8a6EbN3UKaTm8ENDkuH2/tLIQs+J2bAcrm0r2Edrx4ts8FAIQaEcg9h1Oao3eidzRBGmm89Qyi9mLy8nqh7X7hNH9ttgtpDSTFlxg8rlZj6U1CEDAJoFyVcz9kwcmXzlg8zlhte1E7mjImrSy7xdMSvdpfOW29E+GMBiKYLcQhXZUj88BAQhAIHgCsa/93RKwK7mjSemsOtjSVkZuN5vbIsDD5HMjbkkjEICANQLlekvjE7+afvOEtYdE0LAruSMUymepiESJFQ6/BMzmtnIO8CxfxeRzv77M0yEAgX4EWFXyDDIO5Y4CPDdsKrZv7WcbzjslMJvbGr2+1SI6OQd4btjs1GQ8DAIQgMAwAqicfoQcyh11Qb+G9XZ8/bV+veG8awJGclt5BniYfO7aWXkeBCDQm4CmkU9NvT6254Xxl15OddWc3iOvc9at3FHP8nw11jGJ62vL3Nb4WGf7z2YzjCRhtcjye6dc99zj85h87hE+j4YABE4TkMoZn/g/k68cROVU8QjnckevRv0sViaFIygCx4521iTUJCPlthqIntzq0Jl8HpT30hkI5ESgVDmK5WjPWmI51S3vXO6oa1p1UDs6ZRUMqG4Qv1cqxnNgX5M1CZcsK5QXy+Rg8nkmhmaYEAiJgFTO2J7nxidezmqxHIMW8CF3mJRu0IDGmypzW9IudzxYI8yjoJ1EQCbT7ph8btzraBACEOhDAJXTB0zt0/b3zOrZJU1KZ8elnmQCOSnhotxWrU1GVYeew8Hk8xyszBghEAwB1SA//J0fENFpbxBPcqeclN6++7RglYBKrB79StVCq+WrrfYllMaZfB6KJegHBCAAgRoEPMkd9bCclF6jq1zqg0CZ29pyS/HO20MeX87PGnJR5B8z+TxyA9J9CEAgWwL+5I6Qa1I6RxQEKua2Fl0SxWgadpLJ5w3BcRsEIAAB/wS8yp1yUrp/CPSgGoEytzX+dN+rl1ze96MEPlCFcoMp+gkMnCFAAAIQiJ+AV7kjfJqUrhXqOGIhoDDPU48Xym1pnZ7u42OLu88lckahHWWyOCAAAQhAIE4CvuVOOSk9Tnb59lqi54Hbe8zbWvTxZJlouzcOCEAAAhCIloBvuSNwTEqP1HuU23rgfxbP7vyv7isEkmSsTnGdTKbZR+qKdBsCEIDAMAIByB0FeG6+c1g/+TxIAr871VlMWbktLZNdHudeGGRH23VqLTX17QByNwQgAAHfBAKQO0KgmmX944iUgHJbP7z/g9zWxcnls6R1qFCO1DPpNgQgAIHfEwhD7qg3TEqP3SmV29JCzLNhntiHU/afCuU07MgoIACB7AkEI3cU3VERD0fsBBLb+ZXJ57E7JP2HAAQgcJpAMHJHfdGrJclCV1wtUgKEdiI1HN2GAAQg0EUgJLnDpPQu83DCJwHtCc8BAQhAAAJJEAhJ7ghopyz0giTAMojICbA9VuQGpPsQgAAE5hIITO6oa0xKx0O9E1BSlcnn3q1AByAAAQiYIxCe3GFSujnr0lJDAqPXM/m8ITpugwAEIBAkgfDkjjAR4AnSV3LpVGfn8w25DJZxQgACEMiDQJByh/dNHs4X6CjROoEahm5BAAIQaE4gSLmj4WgNHialNzcrdzYloL2x2Pm8KTzugwAEIBAsgVDljialf5qNioJ1m3Q7dsPmdMfGyCAAAQjkSyBUuSOLrFnPRlr5OqaXkVOh7AU7D4UABCBgn0DAckeDZyMt+x7AEz4goIoxKWwOCEAAAhBIkUDYckeT0lVLwQEBBwTYHssBZB4BAQhAwBOBsOWOoNywiZplT76R02PZHisnazNWCEAgQwLByx29h0ZJMWTomW6HzPZYbnnzNAhAAAKOCZzl+HlNHqdJ6ft+Wbxzosm93AOBoQTYHmsoIn8XTE+/pX/Hp9+aOXlqZuZkd0cWLJi/YP68RQsv1H8sXHjRggXzuq/hTGIEZmZOTU+/eWjqjek3T0xPd14NcpKeY5RznNNxjAsWXnSBnGRk5DI8pCeoHE7GIHc0KV3rLG/7Sg72YIyuCXTWtGTJA9fU+z1Pr7GpqdcPHT6yf/LA1OmXWb8r+52X6Fm6ZPHIyKUrrly2dOllesn1u5LzcRGQoBl/6eWpKfnGqw0cY3awpYesWLF85ZXLV6y4Ii4I9LYNgRjkjsZXbqT1+mtthsq9EOhBQKnS887vcZ5TDglMTr66/5UDkjiTrxxo+VhFgDpNvXLgyV0/VVMLF16ot9ro1X+8csUf8bO+JVsvt8s3xl/6t/GJX7WROHN7Pushj50+K/dYt+7alSuuQBl7sa/Lh0Yid4Tkxk3FA7e7RMOz0ifA5HOvNi5VzpO7/rVnlspI1xQSGNO/Pc+rtfXXXSvds2b0E0ZaphGrBBTne3LXU2PPPG9K5fTrbSmO9Sm6ZxbRQ9/+gTKA/Yi1P7/1vrvbN9KghXjkzsWXdHaWGH+6wSC5BQK9CWjeH4cPAhMTv/rxrn9tH8up1XeJHv1TvOe2zTfza74WOpcXK4kpBay8lT0R3HM4s7pHsvi2L3w+52DPxEsv90Rk6iRypwJJrYyy7xfFe6cqXMolEBhGQBXKrOo0DJLZz8uf7FbDOUM7rHjPlq8/rMt4qw1l5fgCFR3f8/WHHIvg7jGWsljBHsliinu6+cR7JviJ6HPRspFWvI4WWs+1AS0Vym6NomKaT31mw2Pbn3D8q73fKPVWu/HPNz22/Z8C6U+/fuZwXjpYGlTu4V3rzNJWsOeWTV/6q1vvsp1Ny8G+gYwxKrkjZmykFYjjxN4NtsdyaEHV6Hxq7caHv/OD0ISF+iP5dePnNpfFPQ6R8Kj/IlDq4DBNINHzqbUbJMUQPQm4bGxyR8jZSCsBv/M7hM7k8w1+u5DJ0/Wr/Y677tWv5Ok3ey+LEgKHMr3FK829LZS9uuXWuwLUwWegKAOB5Vw/95R4oikCEcodTUpX1QUHBBoTQOs0RlfnRgV1lC1SzWmdm7xdq1eaXr3jE3H01hsmcw/uaIjPbQonezV4ZAoESpaR2xpMKfBPI5Q7IqpJ6aq94IBAAwLSysjlBtxq3vLwd/4+8KBO94AU5rnjS/eqmqf7I86YJSDICqeFltwcOsZOQQ+aeCimUC+IU+6oZpmNtEJ1qaD7RYWyffMogaVXgqZf2X+UlSeomke/4600TaNFIffQ9CtBjhQGmjhSw6nbccoddVzTalSBwQGBWgSoUK6Fq/7FqsZQAiuWDEW/8alKQ6OILvbQbzjhnC+l8DN7XginS816Irn2N3fdi4c0o+frrmjljoBpIy0OCFQnQIVydVaNrpw6fETVGCFXJVcflsaiGBXvs+rEqlwppFOH36hyZfjXaC0+DYcZW+FbaraHMcsd1SyzTFxEvua9q+hjmyZITx9oRJpWZpNZXm0rh5WM1iktV/o8iicWP45Z7oixNgGgZjkWX/PbT5UnSx9z2CGQntYpOak09Z7TSzBztCSg2uQEcljdEFTKQ4ynG0uYZyKXO0pPULMcpmeF1ivWULZmkVS1TgnsmT3PM1erpe9op894a5OHjr1UPOQ9h4LyfkHkckf8tG8oAR7vfhR4BxTaOe/8wPsYaffKleLS/luvV/Xk5IFIDeS92/KQhLVOiRfF493NqnQgfrnDpPQqds78GkI7dhwgB61TkrvnG/EtEmPH5rVbVclOGtXrg0euGOdDrF8wmJHvT+OXOyKoAA8HBPoRUMkOoZ1+cFqcLycV5/AmEyT9fKeIp4GzKI0V+6oE1UdN3rM6Ky9XnuXlqYYfqgDPslXFwX2Gm42xuSWnZ6t9dH7xu5PF+DPFOydiHIThPq9myxHDRMvmHtv+vzLROuV4NfF44UWs9VXDl45nkMY6A4fSdiuvvGLFiuU1MHGpKwJJyB3B+uT1yJ3OPDXtGD97aEm9Z3cVz+505UtBPkfF7GwZYcEyWogv3nWTG/NgynEtdAqJ1bo+jYv/5kv37v7nHSjjAK2ZRDJLXJWwyLxgWYvKzNU6pa9pL8zMy1aYfG7hr04OxacWsNFkFgRUtr/l3oeyGGpsg0xF7oh7zjPSpXX6xTAyVzxksiz8SWK5YQtQaTIdAlquSeHPdMaTykgSkjtLlqVilJrjGKB1ypayVTzKZBHdqelNQy/XIjRZlewMBcIFEOgmoCIeUp/dWPyeSUju5JnPGqp1Sv/KU/GgdUz/dSGNZZoo7aVJQCmth77992mOLdpRJSR3ZINlq6M1RKOOV9Q6ZdsZKh7NU+MwSoD1hY3ipLGUCWgqH6tTBmXgtOROVq+3WlonT8VzWa75TTt/Y7SGytie5+20TasQSJAAPw+CMmoqE9FLqPkkLzTfql9t8mD/UoxHRw6z07UaE6sLDnaGmp8mvxVATR5c7o7AwoWdFY8WLrxQ/3ty5uS7Myf1H1roMvDdS1SzrAAPy/C4c5SBT0pL7qg0VdPR3zs1cMjxfyitU6qWZkPJRPFcfEkzPNzVk4BCO2FWKOtFqIXdRkYWL7rowpGRSxcsmLdgwfzZIajYSG9E/Tt0+I2pqSNTh984NHWk5wA5GRQBGXHN1VetuHL50pFLZeK5Np3bT1lWJtYCPxIWMnGAySMFeP5hxSNBsc22M2nJHZnx0ssTX2+wpdYpPT0HxZNVZtP+H7DQQjvSN2uu/sT6664tf/f3A3D6005gYPYXdufVOHlg7GfPB/hq7DeKfM5L1qxcsfymz322YkRE14+M6N/i0dGrRClA4xLgCcd7k5M7f5j0Ku9GtE4miudjRHeM/Z0JKrSj1+Ftmz5f8XXYjUAJkfXr9O9avRql4ahG6kbk5YyEy00bPnvThj/tF8ip0qswjRtdgKelFapYyss1ycmdhFMYBrVODopHG4dxGCLw5E+CWDNtZMmlf/vlLzYWOmfA0Ktx631337b5ZkSPITdp3owkrGyx8KJOaY6RY9a42tjV+x6l0QV4btr4WYO2MGJQI42kNTNLSM5O9CVnXOuU7pPw7PRzk47zGfn2V2tkcvJVVb1Uu9biVbdt/vzuf95uSuvMdrR8L279hsl3rUUKyTWtWM7W+/72H3Y8YuP9KuP+6PFH7v7yF71jG3/pV977QAeSkzuLPp6gUS1pnZJUqoqHaVmGvglje14w1FLDZvTSktBRGKbh/RVuU27rR49/V7WxFa7lEmMESsuuv+5PjLXYqyHlyJ772U4bcqrX03qf05co8Elkvfud1tnk5E5a5umMxqrWKXGlp3g0C53DBAH9jfZb3aIEloSI/tfEaAa1oVfvo498UzGkQRfxmTkCSmDt/sl2NyrkdJjnu26e1ZOQ9+9Rz17ldjI5uaO56CkdWlynzZzz6ij0lJRWLUo1p1ndoIauHJ942VBLTZoptY7Lt5RiSCieJqaqec+6665VAqtNVXLNB3bW7PGreCa8fpXq4kry+uTkTmJWUmjH2fEZh89yNige1I6Ax9BOqXVcvhFLVCiedi4z/O6y5Hz4daav8Kt4VLBMPsu0Seu1h9ypx8vp1YpUuSxASWlS27nnO7VUog/TAm6+ZrWUbyb3Wqe0pBSPCj4StarnYcmy39t2ny/Ldp7+yDd9IXhyVxAzHH0N3/tzkTveTRBMB1Kqd/nt28Fgjbgj+ydf9dV75R18vRHLIUvxjCxZ7Gv4CT/Xb0ZJYLUmoa+5Wqxs6dexkTt++Q98+jsnnG6I8fprA3vDh9kR8JXJuvvLf+2yXqenXSW2FAbwK7l6dizqk6qL8m5ZAVToTttTuCdJPss987lPRO745T/s6T/fOewKc5+PP22uLVqKnoDqDLxkspRu0KKuIeALpych0GjfB/G0uppArR7ef9/dta43dbGvnxCm+h91O8nJnd+ltT/o+Jij3cu1R/qBfVG78oc6/15nw2SONgT0S7TN7Y3vVbKj8b3GbwwkGmF8XF4aDEfraPintayH8izyWV58r3xocnInvffcs7usKx5pHT0lpUOq9720hK9z63iZN9vZ8tPcTgJGmPmq8zDS+XAakbyQccPpj3oi+eU+WenrV0RQ5H11Jjm5k2SNqlXFk57WKb9MicX5nP+F0Lbhzp9Z3PYFi0snNxvOmtGrQlNgzQbi966gQjslCmkd2ws6dzPv5Ih9fLO6e5LhmeTkTqovOUuKJ1Wto6/ycf/bPMX7B0VT0KfffMtx/7XMbpjC4qaNQdQSOTaHwccFGNopR6fNQwwOs2JThw6/UfFKLjNLIDm585t0X3LGFU/CWkffkv88YfarklVrXv4ib/RRS1HFrMrCuM96VOlYLNe4D6JUJKMFD91P0SK6U9E6xi9LT+4cNc4ooAYNKp60tY5s9g5L7zT3XO2C3vzmRncqABDsDp1esh6NKAZ6k5cgSkUWSlZWvNLUZYcOp/ub3BQjO+0kJ3d++x92QAXTqhHFk7zWkblYRqiFzx6acv0XeaWPdVCqE1pz9SeqX8yVcwkEm6MsO+m+gHp6+i12k/DyHUlL7qhw55jrP9MezCbF02aNnBy0jqyiRRo5mhKYcv4D1P1bpxYbLcVLPqsWsdmLR692HT6p1U+Z1X0+iwz3+csAAB7fSURBVPlZtWxk6uK05M6xpDNZc23+1OPF3hebOEEmWkdopH0J8DRxkUJax/Gvz84rZ4WHVW6r41EP2VOiOq65VwYet1NXl4643i1EAZ5mMLmrDYG05M7hg21YRHbvj7fVVjz5aJ3Slln5gzn3nXl3xlxjlVpy/76p1K0PX+S+yKNBJ0O7pSMTRy4NrVdn9Md9pnLKebI4cBO46V5iciezXZ9qKZ7ctI6+QIcz8wdDfzPcl1IGnu8oua5ccYUhwBk1E4WQVabSsUnc18Y5HmCYj0tI7uSZvKioeDLUOvrCKZnF2sr1//C4j7QvXRJ6AEAUF150QX2Wud/hviymAXGFoBwbd+Yku9w0MFTbWxKSOwf2toUR6f1DFU+eWqe05r5fRGpVj912/9PT/c/rBnhP52VchwEa9DOoW8LPZJW4lrrNuLn/RRGUV/jqTEJy59Vc5Y58Z4DiyVnriExK+566+iPh+KenZEQsk56iiEK5cpNKz1kUSUhs4ULXoTv3q5ZXMljSF6UidzTr+GBCG3o38DkpnjNmpyuP89SO1Pb+rEuGfFZdYkWhHSTq39T8jijKO8rhuX8pNscaxp2xRHe0vLJjYDPvks9yjLw4y/UDLT2PKccCq9npE88Uy1YVZ8/rrCl8cC+VKx13m3i6WLvRkt8l2azjWehh7pPV07IRdbVn/x2f1ErZjp/Y+HELzpnf+N5mNx5/80QsWrDZAAO8KxW5o5X3OERAUa6JMUh8iMD4WDF6fUcCclQg4FjrqEcRhUzcvxQrWCzcSxY5zxA1ZrF0ieuqLPdftMZwkrkxiWTWvhdZQjcZjzQ/EE3Zo2C5Mlb3f4VjKdwRwkXxhCsqG5wLIZALgSTkDqGdXNy16TiV4+OoRmDm5KlqFxq7KqaUx3xihDXsHlHuz70TMjmrhicZujR+uUNox5ArpNyMcnxtdhlLGc2ZY3O/pPI5812XTZw55sr/3/1LsXLXQrxwwQLUYYh2ybZP8csdQjvZOm+tgctPWHKwFjEuhkA7AhGlKTVQxysNtkPL3U0IRC53CO00MXqW96iCR1O0OCAAAQhAIEsCMcsdZSgI7WTptQ0HLW/R/HyOwAgsXOR6hbc2AOKKWLQZKfdCIDECMcudztvL6Xpoidk+x+E88UiOo2bM5ggsoFrZHExagoBLAtHKHQkdZbI4IFCLgJajxG1qEeNiCEAAAkkQiFbuPPrVJPgzCOcEdu+gZtk59EEPjGs1/ek3iSgPsiafQSBYAnHKHSqUg3Wo8DummuWf7wy/m/n0cGbG9Uo/+bBlpNUJIGSrs4r0ygjlDhXKkfpaON3WthLHjobTHXoCAQhAAAK2CUQod6hQtu0UObSvlBZHLwLuV9I7/uZbvToS4jn3O2yESKFyn6ano0n8ubcsU/wq+5GxC2OTO1QoGzN93g1Rs5y3/ZuN3v1LsVk/uasuAfeWRe7UtVH762OTO1Qot7c5LZQEWGe5lye4/ysc0eZBEXW1l21dn5uOJ27n3rLuv2iuzR/e86KSO1Qoh+dAEfdIkULWWe6yn/u/whGlPN51vn9ql31iOnE8nmSWe8tGtFVcTD43sK/xyB0qlAcakg+bEGCd5V7UHG8eRAyglxFSOOc+Q9SYmo/oDvunNjZXwxvjkTtUKDc0MbcNJMA6y114FpzjdIvyiGIA7l+KXcaJ6YTkTixa1r1l3c8JiMl17PQ1ErlDhbId89NqoZpl/eOYQ2DRRRe65KE3TSxhgENTR1ySSeBZ08fjmJzl2LJKGbvPGifgTi2HEInceWJby3FyOwT6EpB3vcdKd/+FZ+FC13t2TkUiI6YOI3f6fo16fnDo8Bs9z4d20rFlF7r9RREabV/9iUHuqEKZ39++HCSH51Kz/GEruw+zR/FSVAgqlihUON/aKISse8sucv6LIhyX8NiTGOSOqnY4IGCVgNZZfudtq0+IqHH3cmdy8kD4fPa/EkEnQ8PoOEnUbPjuLTsysrhZV7mrDYHg5c6zOwv9+OaAgFUC2khLnsZxmsDSJa7/Frt/3zQw9eTkqw3uyvyWqcNvhB8Sc2/ZkZFLM3cML8MPW+4w+dyLU+T5UHKmv7e7ojuO6yj1Rgw/wBOFJgvwuxs+N/c9XHSR6/K4AB3DfZfCljuksdx7RM5P/BkBng/MP+IhwBN07ERrIUZRhhLg19d97KQWBC+WDTy6M/PuyVoMY7k4YLnDrkaxOFEy/ZTLjT+dzGjaDGSp89qCsT0vtOmw7Xv3k8lqihjLnkFu5YrlTVk6uu/4m2kWkAQsd5h87si3ecwcAmykdRrGihVXOHYLrb4Tcj5rbM/zjoEk87jAM5XuLVs3dLrgnAWOnSH8cqtmQEKVO2yP1cye3NWSgGqW2UirKFZe6eEH6PhLv2ppPUu3K98xybSsFnCx7Fx4dX9LLJjveruJqak4Vkuq65JByh0qlOuakesNEmAjraJQqbLjnbNkQGU9wvxZ+dj2fzLoXxk2hWXnGt19priuy0W0a2+toQUpd9geq5YNudg4ATbSKoo1o1cZ5zq4QWmdJ3f9dPA1Xj7dH8OyQF7IVHxomJbVS929ZUeWXFp3SWX362C5n6pW0ZFaXhae3GF7rJYm5fb2BNhIS3Ln6k+0B1m3hSd3/WtoAZ6xZ56PZZ/LurRdXh+iZfc8596yK1csa4CdhSEaQOu+JTy589SO7l5yBgKuCWRfKa+FXx3/kZWJQwsDKADw2PYnXPteis8L0LJjz3iYDNjsV4T78p39rwS9MESzr0hgckcVygf2NRsJd0HAJIFOAVnWy/BI69SdQmKEv8IA08HMgx3zEQAwgjHARoKyrOqx3Id29J1a0WgW+lLnqzDLWAG6UMsuBSZ3WFewpT253SABbaSV907p7st3ZD2FAbbc+5BBMzZuitBOY3Q9bwzHslr50P38czFZc3XDejgvcVYviHp6jqmTIckdtscyZVXaMUJAk9J/nnWAZ/111xoBWbcRVUqGULN8y6131e051w8mIMt6n+YmFXvP1789uJ+WPh1tWv7vZUtRpXFDK6RraZdg5E6nQvmXLQcT1u3LV4XVH3rTgIACPCpbzvXoxN59LMAj3g9/5wd+Vx30kuzIwdH0Eh2feNnjSB/+zt+7T2NpvJpg1Ty6M3++e2Ja+TOxwrVg5E56k89XX1PcfGdxHlvBuf+eGn1i3htpeclnlfb7my/d66uIR1onsT/0Rr8SbRvb8o2HD00dadtKo/tl2fGX/IitNkt3+tp3QkHWlFJaYcidJCef/+eJYtU1xdYfFWs3NvpiclMYBBTdybh8Xvks93UDpeEVSFc6yb3i0d93tI7V754se4cPLetXxbZJDSsy5OtrqDir32icQVcMQ+5sv9/gkEJp6tivP+jJ2g0d0SPpwxEpAS2OkGvNsv7Irr/uT3zZTeF0KR6XkQD9nN3y9Yd9jTef58qyN/75JpeWVQ7Lo4qVXmk2J2vWJbxMk9TTS23qveLKyFcjALmjyefHjhoZTFiNzB2UUlpKbJHbCstClXuj6GPGG2k1WymkMtwhF+q9+Gef2+Smcll/0/VbdkiH+NgQAb1H3VhWtckSzX5nVt+2+eaW2PxuPSGl+Fc+Qq0toZ1xewByJ9XJ53pHnnHM5rbOdr3l25k94f/XJZDxpHT9KvVVsDxrJakQBV3sJbbKN6LHX/91/TGZ621bVnPOpXX87vDapkh51tB1NxY17iGaVfeptRvafw1nZk4Z71vFBs+qeJ2tyxKefK5pzArwXHzJmeiU21r1yUIiT2EtjlgIyJpKaSk+l+WhsgO/LwxRV0mN/uDetOFPb9rwWYNG0B/fJ3c9FeAWBwbHGHhTlix7esL5Q979VvBVpNy+8qZNpbNBB5Cx9G/06qs0iWHliisqbiSsLdYPTb0xdfjo/slXpw4fOfjvfmZhf+T99983yKJeU4p/bLml3i1xXX3DrcWa6/t2+eC+YveOojsI1PcGPvBN4M4Hi8su990JD89X3uFTn9kYyCIc+q2s1IBSbAsWtIqSRiF0zL4YvMc5BvtuadnqL9F+rZ1eRfCFcKYUPffszrrbgvYcWoDmU0WRrFYm2iR9Zk6eKv9K6Mul/1Am+vj0W91BWbNe3ZNVz5Ne5Y62JUo7wqFXo16Qgw9lSSbGED2DIYXyaRWDhtJXw/3wO6ulezD6uaxVTFRGXTfIrz/E+yf/3zN7XlCsKBAB1z262TNmXwwBvi97jl3RxNGr/3jlij+qpWj1ctUkc00jCiGiMzsujWXrfXf3HGbdk6F9B+v235JXV++GP7mTfGhHRvjovGLrPxZDK3U62zOR26rutF6vVD4ry0l2QQV45nqAdM/SJYtVYKQfmucsmK/fmvo3e4FegfpvBdL1E1PZjTKW7tWB6j08T7kzy0g27QR7Fl6gyIGMewa7d2dOdkIIv7dsdxShHms7V5sK7ah3cmYFWe1002mrZr26etf91e48+tXqvYz1ShV8HD86PP1RzttSTY+YkNsK3NgSpstWD5ewgY+ifvekKu7+0he1QFz9W+3eoRee4jT6Z/cxtO6DgOo89M/Hk80887bNnzeSxip705nNfuXyoGJXZjC5asXTzCzlsDJ5r7+6t6opJXq0PA+T1avy8nRdxpPS16+71vsULU9W57EQqE1A6mT9OsNrVnlc5bz2+MO7wZPcSXXyebeB6xYnKVFyx7fyTJd0wwv0jMqt3nk70L5Z7tYXN3/e8hNoHgKJEFBBvcHQTgnF4yrnCVjFh9xJePJ5t0con1V3j8kyt6VID/ttdfMM4YxsKh/O8lCJjNl54FlSZNDpE9AuV212jegHyO8q5/16Fct553KnLMuNBY+RfjbbY5LclhH4lhpR0K6uirXUE+fN2vjN6nwQPBACFglIlJiajdXdS7+rnHf3J6IzzuVOPmmsWS/Qe7HxjktlbmvA4j0R+VpiXW2mYuOHoD/l9xuaWBs/DEYAgR4EzFYon/GAEFY57zHmGE65lTsK7dStZYkB4vA+ttlxSWEeLVeo3Fb3As3DH8wV1ghIxebpzEVBSsuaV9Fw9ASUw9La31aHQQldM7xu5U4Ok8972qH9jksSPV/7PvO2etL1dlKhysZxO2+dNvNgpbR8bdFsZgBNW2m/G0DTJ8d3n/FC3fARdBaG/kLb3UCHDlO/N2wUBg19buwXOJQ7+Uw+73YKFbe2CfDMNqjclkTP2hRWmuqGFN+ZjCel663/vUe+mdu7vzMvZn6rnSvic/IWPdY07KxWLtDX4UePf9eNyLv7y1/M7dvXwhM/uNWh3MmwameufdoHeMrWtFKzFiRUbmvZqvbmp4W2BEyZtW0/PNyvH7Lf++43PTzY0yPd/HD3NDhbj80q7bL1G3e70TqylrSOIqy2zJZou67kTlaTz3v6iqkAT9m4cltf2EJuqydppyfLndKdPjKghymorl+ZAXXIZle0qLSzl5nNcThtO58yL5UnO14DUEtCZBU8a++4TuROJ+Y/1r6v0bdgPBKg3JbCPOS2/HpGxpPSBV5/c/WH3q8FHDzd/cvMwaDcPEKCOPm3stzDS6xFcyRJaVV3YydyJ+OKzg9ZQpGAn1tYnq7MbWW5b2V1R7d7Za6T0kuq+kOftuIZWXKpl5eZXad12LreygkHxnxpHRkwt4RyS5+1L3eynXze0zIK8NhYnq5ciJn9tnoyd3BSNrVhVgc9N/SIhBVP542y7T5DnDJtpsMw0cJ2j1qndCalC9P+sWHwO2Nf7jyxzWB3U2hq9w5boyC3ZYtshXaz9/MkFY/e087m2lRwsogvGRlZrOKniAfQq+vetU7ZKX312Nqll33OPGdZ7uRd1nAm7PL/Hztqd8clclu9uVs+29kdxUKm0nKvzTafmOJxOa/YrCHCbG39ums1dynMvjXo1d1f/utwUpwqkFp33bUNRpHVLZblTuaTz/u5krBYzX2UuS1N3WKT0X4msHHeeCm6jU5ablMvgEe/m8J6PMR1bHhKGoqno4N3PGJ76eS6/FUgheIZDM2m3Ml5XcHB1PWpch+2F+TVwjzlvC1Ez1BzGLnA7FoDRrrkoxFNx939k+1Rl6aWWkcVyj74Jf5MKZ7dP9kRr3vIN3b/83ZVzARoJykesloD7GJN7mS48/kAzN0fic/2rd2nzZ9RbuuObxXM2zJPtleLitu983avD/I6V74SIl3nfuWK5dTrWPVX1fFESlhiInApr6wWlcv9vNea3NFCO3qjcwwgoHzWU9bKluc+t8xtafcJwjwDzGHqoyceMdVS1O0o4L/1vrtdrjNrBJfeZ/+w45F4Yw9GIDhoRIL4uWd3RhSKkD8rSxvF1g1lQhkf7nZjO3JHQkd1DBxDCYiSs/pWbaiu3BaT1YcapeUF2U9Kn8tPmQv9jo8izNNJYO14JJ9Folu6uZHbRVvMw38xS5Y997OdjhdNbkNYXY3le9dmmHXvtSN3qFCubgexGn+6+uVtr1RWi9xWW4jD7s971cEz6EhGhB/mKZMUYRZkDPO2uD8Xc4V5gs2/dDKbp0VwdIsXR/G9c+y7FuQO6wrWteFTjxd7X6x7U/Pry9yWIj3ktppDHHgnAZ4uPGWYJ8C3mt5net3G+D7rYhzxCeVfFD4JKgpYRvuU2YxaBAf7vfPirBbkTvbrrTUx5I+3uctqlf2T1iG31cRU1e7hW9DFSe+PoN5q5Q93KnW6DOXnRBmNCEH0lI6hnkQtdGatOPd7F37e0KrzfeT99983+YCD+4ofOplwZLLTwbSlWVTu9/ss59Bp1QAOswRUJsWEuD5Ip6ffGtvzwtgzz0+/+VafS2ydVlZCqSstmtIsPfGptRum33Q3CePgv//SIIhbbr1r8pUDBhsc3FTjZSflHvsnDzy2/QmX7iF/UHhpzdVXpaFyeprGC9junpj16u72+50xLXe23MKErH6sK533onjUs87E+PsLrfjMYYpAGT8z1Vqi7UjxTPzvl8cnXrY9Pr3Mlo4svm3T5zULupnQKXuI3KluqcZyZ/YRk5MHxvY8L+ljT/eUjrHuM9eqvLeNY1THEsKVU1NHntz1U6tgu4epsNno1VdJU/ribFTuKEJADL/byHXPXHZ5cfNdxXnn173PwPWyYGflGHc/Xg30OeQmvnBPsWx1yB0MpG8zMyeleKR79PdX/22wVwsXXrDm6k+svHK5frIb+SM7MfHyu0Z7OHiwqr0YfEGtT8V2ZuZUrVvaXLxgwTwjzNUH6Z79r7y6/5UD+o82XZq9V9p3xZVXKJbTUv4a6YzHRqR7BFYxP+NfvXJQJWeDX8A2rIzKHUI7bUwxe+/Z84obNnnLg0jrTDzjdLKYEWhhNiLleueDYXYt2F7N/v1V4P3Q1JG6/Sx/rGtB5JEli1euuEJyp24LXB84AXnIoak3pg4fUchHTnJ8+sRgiSwfOGfBfJWwqHJFXrF05FKdMaXDAmdVq3uC2WF7uMNWml7/d3q63k/fEnXn2zeyeOnp/w2Kszm5Q9VOLc/qebGEzuj1xej6Qv/h96CgxxR/yR2JHo6mBPT3Vy+z49NvzZxUZKIT+Jn9EzwrZfQa++B9xmusKecE7ut+NyN225tVXzqBnRWU+o+50U197yRoyn/h0zYnd1ShLMXD0ZjA8lXFDZv95LD69ZmCnn5kqp/XzmXaq5UDAhCAAAS8EjAkd7Q54pf+zOtAYn64alr/4s5iSagxAAp62jjXR+cVW//Rf7iuzRC4FwIQgED8BM4yMwRm9DTmqJnnIWSvBvRfs6mVjlEJM5PVB1Dq95F+CRzc660Sq1+vOA8BCEAgMwKGlhk8fDAzbiaGq3COfvdr5rn3Sp2ho2Eh5qGIBlzwG6b3D6DDRxCAAARcEDAU3Tn8movOJvMMqQfNvVKxTlxHuZAMua26VmNif11iXA8BCEDANAFDcud375nuWLrthZ+9Gsy+zG0xWX0wpbmfHv919Wu5EgIQgAAEbBAwJHeO1V4ew8ZgQm9T2au/8LR+oFk0nejUrcXoOgp6zHKlNQhAAAIQsETAkNxR9cl77hbrtMTCYrOBz71qNvKyoEcajoWYBwM818cC2YO7xKcQgAAEMiNgSO6ce2HxHgGeXr4TzsqBvXpn4JxyW/o3PlZMjLH7RG+eF1/S+zxnIQABCEDAFQFDcufijxfks7ptlkz2qntoZ5xZs75Tec1k9Z6gvGx/1rMnnIQABCCQKwFDcudjHy9YUXmuDyWZvRr8JSlzW5pXv3sH62t/CNXHFg8mx6cQgAAEIGCbgCG5czF/0H9vqTJ7pbd+nodEj/ZMYLL6XOuzZ1ae3wVGDQEIhETAkNzRH3SqlWVXVbFoQZ3wlw207YIU9MwSRuvYdjbahwAEIFCBgCG5oyctuqR4PePFBlWm8+mN4e57VcEVzF9CQY+Yrr7GPFhahAAEIACBmgQMbRGqp048Xex+vObTk7hcsRwJHb3aOfoR0LLC2VYxa58QSpX7OQbnIQABCLgiYE7uaCvELX+Z3eo7o9fHsemVK38a9JwMC3qUybrzwUFM+AwCEIAABJwQMJfM+ui84tLLM5qSk88kc1OOWBb0ZCV6yGSZch7agQAEINCOgDm5o3588vos5E6Gk8zbOdmH7i633Nr3y+LZnQZbDbEp+YkGywEBCEAAAgEQMJfMKgez7SspFywnv0SyS49MvqBHe8Fmux6BS0fiWRCAAAQqEDAtdzQ5S4onyYNJ5jbMeuxosf3+BHefUGjnjgcpUrbhMrQJAQhAoAEB03JHXUgvwMMk8waeVeuW9Ap6CO3UcgAuhgAEIGCZgAW5k1KAR9krLRtIBYZlL/yg+XKyupJcsR8K7Wz9UeyDoP8QgAAEUiJgQe4Iz1OPF+NPx42JMh0v9kujoOfmO5HIXtyHh0IAAhDoR8CO3NEaPA/cHnFBBpPM+/mLm/NRix7FAiV3OCAAAQhAICQCduSORhhpSuviSzrZK8kdDu8E5EJPbItMNCuN9dXvs2mad9+hAxCAAATOIGBN7ug5caW02AsizC9HRFXMcqGv/h2zscL0I3oFAQhkTsCm3BHaWGZpsRdE4N+DKKqYN28plq8KHCTdgwAEIJAnActyJ/wiHsp0YnH8wAt6mHkeiyPRTwhAIEsCluWOmOot9ehXQ6zAYC+IGD0+TNGD1onRl+gzBCCQEwH7cidAxUOZTuwuHlQVM1ondnei/xCAQAYEnMidoBQPZTrJuHUIVcyax7dmfTJEGQgEIACBVAm4kjshKB7KdJL04vGxYmLMQ7aUFbeTdCcGBQEIJErAodzxqHhYTSdR9/1gWO4LelT4tfmeQn7FAQEIQAACMRBwK3dERHO1du8olIZwc1Cm44ZzCE9xJnoUJty0hbUEQ7A5fYAABCBQkYBzuVP2S8uoPLuzYhcbXsamVw3BRX6bRI/WYlYts40D9WyDKm1CAAIQsE/Ak9zRwKxOUNe+RZovc9759gHyhCAJ2Khi1hKCN2zGqYK0N52CAAQgMISAP7lTdsz4a0mJhk9vZNOrIWbP5GNT3oVTZeIwDBMCEEiXgG+5Y1D08E5K101bjayN6MGpWqHnZghAAAKhEAhD7pQ09Fra+2KTqgveSaG4U8D9kHdpyvqxo5W6KI+6bFkxup565Eq4uAgCEIBA8ARCkjslLNX0qM60iu5R3eh/u6ZYvprUVfBuFkwHJXdK1+rWPZpbftnlxcc+Xiz7Ywp0gjEYHYEABCBghkB4cmd2XO+dKo4fLQ4f7Pwif+ftD36XS+Kce0FnvRP9/l62mh/fZrwgw1bkXb890VkWQYc8iqr2DH2AIUMAAjkRCFju5GQGxgoBCEAAAhCAgD0Cf2CvaVqGAAQgAAEIQAACIRBA7oRgBfoAAQhAAAIQgIBFAsgdi3BpGgIQgAAEIACBEAggd0KwAn2AAAQgAAEIQMAiAeSORbg0DQEIQAACEIBACASQOyFYgT5AAAIQgAAEIGCRAHLHIlyahgAEIAABCEAgBALInRCsQB8gAAEIQAACELBIALljES5NQwACEIAABCAQAgHkTghWoA8QgAAEIAABCFgkgNyxCJemIQABCEAAAhAIgQByJwQr0AcIQAACEIAABCwSQO5YhEvTEIAABCAAAQiEQAC5E4IV6AMEIAABCEAAAhYJIHcswqVpCEAAAhCAAARCIIDcCcEK9AECEIAABCAAAYsEkDsW4dI0BCAAAQhAAAIhEEDuhGAF+gABCEAAAhCAgEUCyB2LcGkaAhCAAAQgAIEQCCB3QrACfYAABCAAAQhAwCIB5I5FuDQNAQhAAAIQgEAIBJA7IViBPkAAAhCAAAQgYJEAcsciXJqGAAQgAAEIQCAEAsidEKxAHyAAAQhAAAIQsEgAuWMRLk1DAAIQgAAEIBACAeROCFagDxCAAAQgAAEIWCSA3LEIl6YhAAEIQAACEAiBAHInBCvQBwhAAAIQgAAELBJA7liES9MQgAAEIAABCIRAALkTghXoAwQgAAEIQAACFgkgdyzCpWkIQAACEIAABEIggNwJwQr0AQIQgAAEIAABiwSQOxbh0jQEIAABCEAAAiEQQO6EYAX6AAEIQAACEICARQL/H0/s/0ilo0s3AAAAAElFTkSuQmCC;" parent="1" vertex="1">
          <mxGeometry x="660" y="70" width="91.23" height="40" as="geometry" />
        </mxCell>
        <mxCell id="vrlAtNUlEUxdFxPiRWN3-5" value="" style="shape=image;verticalLabelPosition=bottom;labelBackgroundColor=default;verticalAlign=top;aspect=fixed;imageAspect=0;image=data:image/png,iVBORw0KGgoAAAANSUhEUgAAAIwAAAAyCAIAAAABYqRsAAAAA3NCSVQICAjb4U/gAAAJ/ElEQVR4Xu2bT3BV9RXHr51uhFEWWLvQ2NINlKQL6EKCdiMKdFGgUxP+2I3kPXcOmOjY6gxN0hKnHV8gdde82E1L4AWqxoUJRDe1EBaVRQmFjSiBzmjjTEktLOnnvnNz3snv3ve7Ly8ZeDD3N28y7/5+5/fvfH/nnO/v3Jf7bt26FWSlsTXwjcZeXra6UAMZSHfBOchAugtA+uYi1zgzE5z7JPjk7+Ewly6Gf5seC5YtC9b/MFi3PnjooUUOn3UPNXBf3cQBeIb/HCLkKavXBNt3BGu+7xHJmtI1UCdI770bvPdO+ugi8cSTwe7nQvPKSn0aqAekocHgbx/Pm27lytBcVpad21czwZXPg+npeQL4wFd/meFUH0YLd3cOQqtXh1by2Hfc6UNn+Kfg3LlKPTj1/NoVy55r0cDCLOnkeHD0SGXYvbngyR/5ZoFQAOrNm5HM05uDPc/55LO2RA0sgIJjHIQiLd29KQghCcfDy91/f9Rp4mRw8Z+Jy8gqfRpYAEgwhZs3orF27UlwcYnz4Anxh1pOjSdKZZU+DdQKEhagZAGasHmLb1CnDZdI6JJClMIis7IgDdR6mR02oWj7T90pwO/jvwZXroS3V1zcM5tdIvfMluDSpagXgapGjA8cGLwwdVm6NTV9+9Dhfe7E5efz5z/t7x+evf6/XG7b1h9vSJRxKp/92WtS09a+aefOTbV0uYMyNYEEANNXKou0l9MbN4LfvlFpRYwP/OLVX8zzhyCnxQ7l2fn09BdDxfdV4MyZ8x25n7S0fC/epVAYPjl+lvqpqcs1gsRoMk5ra0t8wEarSXd3wGDNiA3YZM9bA/Pwk+0Rut76fUBHW9Tjzfy7JiWUjn3oyBUHRxN7YkNSPzsbfUkUu3sr00HCLJQvsE/VNd+5tEq+ju9QOBg24UoKV1pJ6NWtmlLpI6fv+PjZ63N42KZ8ftsDD4T5jM7OXXVPtyQdcbw4Uvkcix2yuqdIAYkgP2poN9PMfFWZ62I5oyrlxX3hHajnNxWcFL86Fjf2weTVq19KR1U9hjI2NhkfDRd38dLRa/8a7Xp5T7z1dtawQhypfK5Of7FUU6eAxFXUKZiIFuvQJOlAgm7Z8qjdcWsWXXfQ2POxUuTrMBFU/8gj3xKRoWKyx4sNcE9V+IgDtNt6M00c4MeECKxfX7Ez6AOWRJPygnWGLGCRiu7qtKQ4Pk2IAJreujVka9iKkAioAS7FoQ+WBB4/0Sf4KH/r7slRA/07czokCzw6dA6G0l84evr0P7BdeAQ0srNrF38Rfv75g/8tx7m1zat6e/MO8oU3jygBgVgWi6M2KOKupdUhkOxufHySiDs9/SXyzc2rNm78QVv7UzKjM4U8+kAaKla6kDjoPhA98npCQMJ6mpqiXCrYgJMtltER2LQArb+UShMqICC1t29SplcqfeiANHX+8uRkxNa0o6oPecsSZ2e/trMT5/r7j9pedKRL/6F9YNnSvEpaqSTyWT2i62LxfUFlw4aWB1cs1xllNCAXj20JJCesY2+fenIkxTcODo4eOrSvGjWt6u7efady9mEE4LFuXbQXbkVQBikd+UrWx26eLkoC8Yr2IhzPxtqOfC8ORswbXyfrBpW1a78rYiMxQuF0dx4tQjQ1N88j8ZhmYvfOlwawrVx+u1ASZApvDltJoqPaTXttNy1Mtu3Z1y1COiBDdXT0MWPiYpJBQq2nTkby0LYd5dsrF1ItyrDROGRB8RMB7SKP4K38MH4RdpYlbkcqxYzkuyqC/SyUOKFoLGPk+EE+DkgyODcwabX88KX9AytWLMeARGZk5CO0rKvtL0SYMTg2x7CM0N3ToQJtbU/JmLpyBhRc6cJE0oqYdkHA0YY8JoPEK1erVnlfxx2W13dSCDBDf4i+YzEv7g9flmuxr/iwOfKqUiDo/qw5YvZ6ZE+oBWxkjlZUpvR+e/uPr6NHXD8f9O7Ioi/ijbRCUlTRHHm8U6Ix2ZMkKDIsI9gT0NT0sIwpThKA1R8ePryfiaT18MB+PRnMCK2NbyUhJtk0HSHHpnBs2u0J85KCLvoenS4WCXsRxjf6C46eA6synFY9sLYju2XPnkhrhfGTqMMzLzDY1nx+e/evhqRmfGwSbXI+ZFX87Xp5N/NWO0meWaAJ2opnqyY5NfVpPDIlWJJ9H2ET2DA3JXtcaS0vsEhU64JLTP2xg6UMbEOCqv61GyPSVtunU9/qRQjhuG3BuOwgAKOPRCbOh56kzVser/GsnKkSb2rZhWtJpOkUCZybVes8m3ihMrjN7NkuTj5p98/T11M7KRgfOxvnxIkTrHjQ9W+OGObr4KRsAs6GMDCEAaZs4rBB/JiOoBErcWpbGZ6VORrpyYwkHikXpHPlH2cR+aEJwhdkJofsWeam4NHL8gJot96Ntu1I/3kXAUC1w+01MTkNp7pw4TOWJO477hlSlRUXKBSOWLy5/ahMa2vkJzEmAYnID/MWARbpcaTX5ycSbbgCe5yqXQmh6NGmhxPTx4i5IEEB4iWR7ImYZW7gquARvSw/rOXdhM2fEgkSQWKr6tDJSiwJSHB0IN/Z/jQ7OlaawEYVA9WaNSZl3vkXIuKnGrNI4BXoTsfr//madWKsao7EvAtTnwktIjssk+JjR473xX1vAkhxhKixZM8yN5CwzM1aXrUuieNTWb6HR9rh0XI524Xdcn6vXQsT6WQlaqcP1eaVeoBRbFQSTmh7qTFJJTS6vYyrLaiYi63crMFSKDU1cph6evPwAvEE3Jf52L54kY69BzVjYpsSiIMzsUP2LHOzmT3LFyzZg2Kk0m5mtHdDTlzigZKFWeuJv85wFp/6iAb1uqrC1AwNveY4HzEmleEYJS6ypzcXH1B6IX/8xBvMmLgqDl9nV4WhWBnX3cX7L5Lspd5edUYNp1vK+bpqhVitXODRcoYNv7Fxo7tzHS0xFNu5Qkpdmhj7ILJjhoKUJwJgl5Sbu+Q66wTaUxMDkE+SVdJkb3sMe+IvfURffLuScpgIkHtcd8pPumBub89l8ODQNmK90lXhBb8rVKKR/dkXZC/1blQNjEarxyFveDynyTp0fdtW6HN3lkPD3CyH9pA9tbywyz30K7s6knVLhaIPJH0ni7oxiGrMzWHqmk+C7N1Lv/92knVLBUAt4/hiErx5zZpwELKoVt32B3ieNJ0Fr5alNLJMPFl3O1frAwlg4okcD9lbUJrudm5y8XPVkaxb/KQ6gg+kxGlsyLGkwGb2nHxS4jh3USWUASYm1Lm5ZVWNybol3ODCQOK9g/xyIf7PFPKjlHg+aQnXeqeGEt58p2Zn3hQKfgdXlk2tGvCxu0xNDaKBDKQGAcK3jAwkn3YapC0DqUGA8C0jA8mnnQZpy0BqECB8y8hA8mmnQdoykBoECN8yMpB82mmQtgykBgHCt4z/A8GNYhgmTUn7AAAAAElFTkSuQmCC;" parent="1" vertex="1">
          <mxGeometry x="200" y="120" width="56" height="20" as="geometry" />
        </mxCell>
        <mxCell id="QpoE36uFWXVbWVcbmsFl-11" style="edgeStyle=orthogonalEdgeStyle;rounded=0;orthogonalLoop=1;jettySize=auto;html=1;" parent="1" source="QpoE36uFWXVbWVcbmsFl-1" target="QpoE36uFWXVbWVcbmsFl-5" edge="1">
          <mxGeometry relative="1" as="geometry" />
        </mxCell>
        <mxCell id="QpoE36uFWXVbWVcbmsFl-1" value="" style="image;aspect=fixed;html=1;points=[];align=center;fontSize=12;image=img/lib/azure2/general/Files.svg;" parent="1" vertex="1">
          <mxGeometry x="29.99999999999998" y="60" width="36.57" height="40" as="geometry" />
        </mxCell>
        <mxCell id="QpoE36uFWXVbWVcbmsFl-3" value="" style="sketch=0;html=1;aspect=fixed;strokeColor=none;shadow=0;fillColor=#3B8DF1;verticalAlign=top;labelPosition=center;verticalLabelPosition=bottom;shape=mxgraph.gcp2.database_3" parent="1" vertex="1">
          <mxGeometry x="30" y="130" width="35" height="50" as="geometry" />
        </mxCell>
        <mxCell id="QpoE36uFWXVbWVcbmsFl-4" value="" style="image;aspect=fixed;html=1;points=[];align=center;fontSize=12;image=img/lib/azure2/analytics/Azure_Databricks.svg;" parent="1" vertex="1">
          <mxGeometry x="311.21" y="148" width="38.79" height="42" as="geometry" />
        </mxCell>
        <mxCell id="QpoE36uFWXVbWVcbmsFl-17" style="edgeStyle=orthogonalEdgeStyle;rounded=0;orthogonalLoop=1;jettySize=auto;html=1;" parent="1" source="QpoE36uFWXVbWVcbmsFl-5" target="vrlAtNUlEUxdFxPiRWN3-5" edge="1">
          <mxGeometry relative="1" as="geometry" />
        </mxCell>
        <mxCell id="QpoE36uFWXVbWVcbmsFl-5" value="" style="outlineConnect=0;dashed=0;verticalLabelPosition=bottom;verticalAlign=top;align=center;html=1;shape=mxgraph.aws3.s3;fillColor=#E05243;gradientColor=none;" parent="1" vertex="1">
          <mxGeometry x="100" y="100" width="46" height="50" as="geometry" />
        </mxCell>
        <UserObject label="Snow-pipe" placeholders="1" name="Variable" id="QpoE36uFWXVbWVcbmsFl-7">
          <mxCell style="text;html=1;strokeColor=#6c8ebf;fillColor=#dae8fc;align=center;verticalAlign=middle;whiteSpace=wrap;overflow=hidden;" parent="1" vertex="1">
            <mxGeometry x="188" y="159" width="80" height="20" as="geometry" />
          </mxCell>
        </UserObject>
        <mxCell id="QpoE36uFWXVbWVcbmsFl-10" value="" style="endArrow=none;html=1;rounded=0;" parent="1" edge="1">
          <mxGeometry width="50" height="50" relative="1" as="geometry">
            <mxPoint x="520" y="420" as="sourcePoint" />
            <mxPoint x="570" y="370" as="targetPoint" />
          </mxGeometry>
        </mxCell>
        <mxCell id="QpoE36uFWXVbWVcbmsFl-12" style="edgeStyle=orthogonalEdgeStyle;rounded=0;orthogonalLoop=1;jettySize=auto;html=1;entryX=0;entryY=0.5;entryDx=0;entryDy=0;entryPerimeter=0;" parent="1" source="QpoE36uFWXVbWVcbmsFl-3" target="QpoE36uFWXVbWVcbmsFl-5" edge="1">
          <mxGeometry relative="1" as="geometry" />
        </mxCell>
        <mxCell id="QpoE36uFWXVbWVcbmsFl-13" style="edgeStyle=orthogonalEdgeStyle;rounded=0;orthogonalLoop=1;jettySize=auto;html=1;entryX=0.5;entryY=0;entryDx=0;entryDy=0;entryPerimeter=0;" parent="1" source="QpoE36uFWXVbWVcbmsFl-5" target="62sTpGnNLeASL4iVha29-6" edge="1">
          <mxGeometry relative="1" as="geometry" />
        </mxCell>
        <mxCell id="QpoE36uFWXVbWVcbmsFl-18" style="edgeStyle=orthogonalEdgeStyle;rounded=0;orthogonalLoop=1;jettySize=auto;html=1;entryX=0.5;entryY=0;entryDx=0;entryDy=0;entryPerimeter=0;" parent="1" source="QpoE36uFWXVbWVcbmsFl-7" target="62sTpGnNLeASL4iVha29-5" edge="1">
          <mxGeometry relative="1" as="geometry" />
        </mxCell>
        <mxCell id="QpoE36uFWXVbWVcbmsFl-23" value="" style="edgeStyle=orthogonalEdgeStyle;rounded=0;orthogonalLoop=1;jettySize=auto;html=1;" parent="1" source="QpoE36uFWXVbWVcbmsFl-19" target="QpoE36uFWXVbWVcbmsFl-22" edge="1">
          <mxGeometry relative="1" as="geometry" />
        </mxCell>
        <UserObject label="Snow-pipe" placeholders="1" name="Variable" id="QpoE36uFWXVbWVcbmsFl-19">
          <mxCell style="text;html=1;strokeColor=#6c8ebf;fillColor=#dae8fc;align=center;verticalAlign=middle;whiteSpace=wrap;overflow=hidden;" parent="1" vertex="1">
            <mxGeometry x="188" y="210" width="80" height="20" as="geometry" />
          </mxCell>
        </UserObject>
        <UserObject label="Snow-pipe" placeholders="1" name="Variable" id="QpoE36uFWXVbWVcbmsFl-22">
          <mxCell style="text;html=1;strokeColor=#6c8ebf;fillColor=#dae8fc;align=center;verticalAlign=middle;whiteSpace=wrap;overflow=hidden;" parent="1" vertex="1">
            <mxGeometry x="188" y="310" width="80" height="20" as="geometry" />
          </mxCell>
        </UserObject>
      </root>
    </mxGraphModel>
  </diagram>
</mxfile>
